<mxfile host="app.diagrams.net" agent="Mozilla/5.0 (X11; Ubuntu; Linux x86_64; rv:130.0) Gecko/20100101 Firefox/130.0" version="24.7.17">
  <diagram name="Page-1" id="DW2yxXTDTXv0PErmnMDG">
    <mxGraphModel dx="1364" dy="795" grid="1" gridSize="10" guides="1" tooltips="1" connect="1" arrows="1" fold="1" page="1" pageScale="1" pageWidth="850" pageHeight="1100" math="0" shadow="0">
      <root>
        <mxCell id="0" />
        <mxCell id="1" parent="0" />
        <mxCell id="ZRmY2SspQiyQrZdGpQz--8" value="" style="rounded=1;whiteSpace=wrap;html=1;" vertex="1" parent="1">
          <mxGeometry x="60" y="590" width="750" height="330" as="geometry" />
        </mxCell>
        <mxCell id="ZRmY2SspQiyQrZdGpQz--4" value="" style="rounded=1;whiteSpace=wrap;html=1;fillColor=#FFFF99;" vertex="1" parent="1">
          <mxGeometry x="40" y="80" width="780" height="500" as="geometry" />
        </mxCell>
        <mxCell id="2Mf51H98Ej2V9C3H_Nt_-1" value="Zed_Node" style="ellipse;whiteSpace=wrap;html=1;" parent="1" vertex="1">
          <mxGeometry x="80" y="320" width="130" height="100" as="geometry" />
        </mxCell>
        <mxCell id="ZRmY2SspQiyQrZdGpQz--2" style="edgeStyle=orthogonalEdgeStyle;rounded=0;orthogonalLoop=1;jettySize=auto;html=1;curved=1;" edge="1" parent="1" target="ZRmY2SspQiyQrZdGpQz--1">
          <mxGeometry relative="1" as="geometry">
            <mxPoint x="479" y="240" as="sourcePoint" />
            <mxPoint x="689" y="285" as="targetPoint" />
            <Array as="points">
              <mxPoint x="689" y="240" />
              <mxPoint x="689" y="255" />
            </Array>
          </mxGeometry>
        </mxCell>
        <mxCell id="2Mf51H98Ej2V9C3H_Nt_-2" value="Pose_node" style="ellipse;whiteSpace=wrap;html=1;" parent="1" vertex="1">
          <mxGeometry x="350" y="190" width="130" height="100" as="geometry" />
        </mxCell>
        <mxCell id="2Mf51H98Ej2V9C3H_Nt_-3" value="" style="curved=1;endArrow=classic;html=1;rounded=0;exitX=0.5;exitY=0;exitDx=0;exitDy=0;entryX=0;entryY=0.5;entryDx=0;entryDy=0;" parent="1" source="2Mf51H98Ej2V9C3H_Nt_-1" target="2Mf51H98Ej2V9C3H_Nt_-2" edge="1">
          <mxGeometry width="50" height="50" relative="1" as="geometry">
            <mxPoint x="260" y="300" as="sourcePoint" />
            <mxPoint x="310" y="250" as="targetPoint" />
            <Array as="points">
              <mxPoint x="260" y="250" />
            </Array>
          </mxGeometry>
        </mxCell>
        <mxCell id="2Mf51H98Ej2V9C3H_Nt_-4" value="&lt;div&gt;&lt;code&gt;/zed/zed_node/pose&lt;/code&gt;&lt;/div&gt;&lt;div&gt;&lt;code&gt;&lt;b&gt;Topic type: &lt;/b&gt;nav_msgs/pose_stamped&lt;br&gt;&lt;/code&gt;&lt;/div&gt;" style="text;html=1;align=center;verticalAlign=middle;whiteSpace=wrap;rounded=0;" parent="1" vertex="1">
          <mxGeometry x="60" y="180" width="260" height="90" as="geometry" />
        </mxCell>
        <mxCell id="2Mf51H98Ej2V9C3H_Nt_-5" value="&lt;b&gt;Manual mode&lt;br&gt;&lt;/b&gt;" style="text;html=1;align=center;verticalAlign=middle;whiteSpace=wrap;rounded=0;" parent="1" vertex="1">
          <mxGeometry x="357.5" y="10" width="115" height="50" as="geometry" />
        </mxCell>
        <mxCell id="ZRmY2SspQiyQrZdGpQz--1" value="/tf" style="ellipse;whiteSpace=wrap;html=1;aspect=fixed;" vertex="1" parent="1">
          <mxGeometry x="610" y="185" width="110" height="110" as="geometry" />
        </mxCell>
        <mxCell id="ZRmY2SspQiyQrZdGpQz--3" value="/odom" style="text;html=1;align=center;verticalAlign=middle;resizable=0;points=[];autosize=1;strokeColor=none;fillColor=none;" vertex="1" parent="1">
          <mxGeometry x="510" y="190" width="60" height="30" as="geometry" />
        </mxCell>
        <mxCell id="ZRmY2SspQiyQrZdGpQz--5" value="&lt;b&gt;Visual odometry&lt;br&gt;&lt;/b&gt;" style="text;html=1;align=center;verticalAlign=middle;whiteSpace=wrap;rounded=0;" vertex="1" parent="1">
          <mxGeometry x="170" y="90" width="160" height="60" as="geometry" />
        </mxCell>
        <mxCell id="ZRmY2SspQiyQrZdGpQz--11" style="edgeStyle=orthogonalEdgeStyle;rounded=0;orthogonalLoop=1;jettySize=auto;html=1;entryX=0;entryY=0;entryDx=0;entryDy=0;" edge="1" parent="1" source="ZRmY2SspQiyQrZdGpQz--7" target="ZRmY2SspQiyQrZdGpQz--9">
          <mxGeometry relative="1" as="geometry">
            <Array as="points">
              <mxPoint x="350" y="735" />
              <mxPoint x="350" y="696" />
            </Array>
          </mxGeometry>
        </mxCell>
        <mxCell id="ZRmY2SspQiyQrZdGpQz--12" style="edgeStyle=orthogonalEdgeStyle;rounded=0;orthogonalLoop=1;jettySize=auto;html=1;exitX=1;exitY=1;exitDx=0;exitDy=0;entryX=0;entryY=1;entryDx=0;entryDy=0;" edge="1" parent="1" source="ZRmY2SspQiyQrZdGpQz--7" target="ZRmY2SspQiyQrZdGpQz--9">
          <mxGeometry relative="1" as="geometry" />
        </mxCell>
        <mxCell id="ZRmY2SspQiyQrZdGpQz--13" style="edgeStyle=orthogonalEdgeStyle;rounded=0;orthogonalLoop=1;jettySize=auto;html=1;exitX=1;exitY=0;exitDx=0;exitDy=0;entryX=0.5;entryY=0;entryDx=0;entryDy=0;" edge="1" parent="1" source="ZRmY2SspQiyQrZdGpQz--7" target="ZRmY2SspQiyQrZdGpQz--9">
          <mxGeometry relative="1" as="geometry">
            <Array as="points">
              <mxPoint x="244" y="660" />
              <mxPoint x="495" y="660" />
            </Array>
          </mxGeometry>
        </mxCell>
        <mxCell id="ZRmY2SspQiyQrZdGpQz--7" value="User" style="ellipse;whiteSpace=wrap;html=1;" vertex="1" parent="1">
          <mxGeometry x="150" y="690" width="110" height="100" as="geometry" />
        </mxCell>
        <mxCell id="ZRmY2SspQiyQrZdGpQz--9" value="robot_control" style="ellipse;whiteSpace=wrap;html=1;aspect=fixed;" vertex="1" parent="1">
          <mxGeometry x="440" y="680" width="110" height="110" as="geometry" />
        </mxCell>
        <mxCell id="ZRmY2SspQiyQrZdGpQz--14" value="/cmd_vel" style="text;html=1;align=center;verticalAlign=middle;whiteSpace=wrap;rounded=0;" vertex="1" parent="1">
          <mxGeometry x="280" y="630" width="60" height="30" as="geometry" />
        </mxCell>
        <mxCell id="ZRmY2SspQiyQrZdGpQz--16" value="&lt;div&gt;/goal_joint_state&lt;/div&gt;" style="text;html=1;align=center;verticalAlign=middle;whiteSpace=wrap;rounded=0;" vertex="1" parent="1">
          <mxGeometry x="280" y="740" width="130" height="50" as="geometry" />
        </mxCell>
        <mxCell id="ZRmY2SspQiyQrZdGpQz--17" value="/goal_cabezal" style="text;html=1;align=center;verticalAlign=middle;whiteSpace=wrap;rounded=0;" vertex="1" parent="1">
          <mxGeometry x="305" y="780" width="105" height="30" as="geometry" />
        </mxCell>
      </root>
    </mxGraphModel>
  </diagram>
</mxfile>
